<svg width="40" height="40" viewBox="0 0 40 40" xmlns="http://www.w3.org/2000/svg">
  <rect width="40" height="40" fill="none"></rect>

  <!-- B -->
  <path d="M6 8 
           L18 8 
           C24 8 26 11 26 14 
           C26 17 24 18.5 21.5 19 
           C24.5 19.5 27 21.5 27 25 
           C27 29 24 32 18 32 
           L6 32 Z" fill="#1E4FA3"></path>

  <!-- corte interno do B -->
  <path d="M12 13 
           L17 13 
           C19.5 13 20.5 14 20.5 15.5 
           C20.5 17 19.5 18 17 18 
           L12 18 Z" fill="#ffffff"></path>

  <path d="M12 21 
           L17.5 21 
           C20.5 21 21.5 22.5 21.5 24 
           C21.5 26 20 27 17.5 27 
           L12 27 Z" fill="#ffffff"></path>

  <!-- F -->
  <path d="M22 8 
           L34 8 
           L34 12 
           L26 12 
           L26 16 
           L32 16 
           L32 20 
           L26 20 
           L26 32 
           L22 32 Z" fill="#2FA4E7"></path>
</svg>